<?xml version="1.0" encoding="UTF-8"?>
<!DOCTYPE svg PUBLIC "-//W3C//DTD SVG 1.1//EN" "http://www.w3.org/Graphics/SVG/1.1/DTD/svg11.dtd">
<svg xmlns="http://www.w3.org/2000/svg" version="1.1" width="1776px" height="1023px" style="shape-rendering:geometricPrecision; text-rendering:geometricPrecision; image-rendering:optimizeQuality; fill-rule:evenodd; clip-rule:evenodd" xmlns:xlink="http://www.w3.org/1999/xlink">
<g><path style="opacity:1" fill="#fefefe" d="M -0.5,-0.5 C 591.5,-0.5 1183.5,-0.5 1775.5,-0.5C 1775.5,340.5 1775.5,681.5 1775.5,1022.5C 1183.5,1022.5 591.5,1022.5 -0.5,1022.5C -0.5,681.5 -0.5,340.5 -0.5,-0.5 Z"/></g>
<g><path style="opacity:1" fill="#0da858" d="M 746.5,55.5 C 753.25,57.3809 759.584,60.0475 765.5,63.5C 768.813,68.7924 771.646,74.459 774,80.5C 774.5,131.832 774.667,183.166 774.5,234.5C 748.21,243.283 725.376,257.617 706,277.5C 705.333,212.5 705.333,147.5 706,82.5C 708.331,75.8469 711.164,69.5136 714.5,63.5C 717.778,61.93 721.111,60.2633 724.5,58.5C 731.597,55.9781 738.931,54.9781 746.5,55.5 Z"/></g>
<g><path style="opacity:1" fill="#0ea859" d="M 1112.5,211.5 C 1109.46,211.733 1106.79,212.733 1104.5,214.5C 1103.51,214.328 1102.84,214.662 1102.5,215.5C 1099.08,215.528 1096.08,216.528 1093.5,218.5C 1088.85,219.41 1084.52,221.076 1080.5,223.5C 1075.84,224.057 1071.5,225.39 1067.5,227.5C 989.696,254.43 912.363,282.097 835.5,310.5C 831.085,310.861 827.085,312.194 823.5,314.5C 805.869,318.23 792.035,327.564 782,342.5C 778.377,348.734 776.21,355.4 775.5,362.5C 774.505,373.321 774.172,384.321 774.5,395.5C 903.167,395.5 1031.83,395.5 1160.5,395.5C 1160.5,364.5 1160.5,333.5 1160.5,302.5C 1162.43,295.395 1166.77,290.228 1173.5,287C 1180.17,286.833 1186.83,286.667 1193.5,286.5C 1201.24,286.384 1208.91,286.884 1216.5,288C 1222.82,290.986 1226.99,295.819 1229,302.5C 1229.67,381.167 1229.67,459.833 1229,538.5C 1224.4,573.221 1207.9,600.721 1179.5,621C 1169.22,627.638 1158.55,633.471 1147.5,638.5C 1142.84,639.057 1138.5,640.39 1134.5,642.5C 1131.17,643.167 1127.83,643.833 1124.5,644.5C 1121.85,644.41 1119.51,645.076 1117.5,646.5C 1110.56,648.089 1103.56,649.422 1096.5,650.5C 1093.17,650.215 1090.17,650.882 1087.5,652.5C 1081.76,653.114 1076.09,654.114 1070.5,655.5C 1067.85,655.41 1065.51,656.076 1063.5,657.5C 1046.13,660.441 1028.79,663.775 1011.5,667.5C 1008.85,667.41 1006.51,668.076 1004.5,669.5C 984.11,672.978 963.777,676.978 943.5,681.5C 938.876,681.763 934.542,682.763 930.5,684.5C 893.122,691.677 855.789,699.177 818.5,707C 794.567,714.604 780.067,730.771 775,755.5C 774.667,773.167 774.333,790.833 774,808.5C 768.937,825.062 757.771,834.062 740.5,835.5C 723.114,834.785 711.781,826.118 706.5,809.5C 705.368,788.864 705.201,768.197 706,747.5C 709.37,725.773 717.87,706.439 731.5,689.5C 745.765,674.072 762.431,661.906 781.5,653C 786.388,651.029 791.388,649.529 796.5,648.5C 799.212,647.01 801.712,647.344 804,649.5C 805.705,648.237 807.372,647.903 809,648.5C 809.667,645.833 810.333,645.833 811,648.5C 816.131,643.674 822.131,642.008 829,643.5C 830.793,641.975 832.626,640.642 834.5,639.5C 836.415,639.784 838.081,639.451 839.5,638.5C 842.829,638.785 845.829,638.118 848.5,636.5C 850.764,635.781 853.097,635.448 855.5,635.5C 863.549,634.959 871.215,633.293 878.5,630.5C 885.324,629.802 891.991,628.468 898.5,626.5C 901.495,626.706 904.162,626.04 906.5,624.5C 909.127,623.908 911.794,623.575 914.5,623.5C 922.549,622.959 930.215,621.293 937.5,618.5C 947.8,616.342 958.133,614.342 968.5,612.5C 978.213,611.626 987.546,609.626 996.5,606.5C 1006.74,604.077 1017.07,602.077 1027.5,600.5C 1035.53,599.962 1043.2,598.296 1050.5,595.5C 1062.4,592.721 1074.4,590.388 1086.5,588.5C 1094.55,587.959 1102.22,586.293 1109.5,583.5C 1130.88,579.064 1146.38,567.064 1156,547.5C 1157.74,542.965 1158.91,538.298 1159.5,533.5C 1160.5,513.34 1160.83,493.007 1160.5,472.5C 1031.83,472.5 903.167,472.5 774.5,472.5C 774.5,503.167 774.5,533.833 774.5,564.5C 773.154,575.679 767.154,583.179 756.5,587C 744.429,587.937 732.429,587.604 720.5,586C 712.682,582.181 707.848,576.014 706,567.5C 705.333,496.833 705.333,426.167 706,355.5C 713.68,311.793 737.846,281.126 778.5,263.5C 782.327,263.248 785.66,261.915 788.5,259.5C 817.94,248.462 847.606,237.796 877.5,227.5C 880.152,227.59 882.485,226.924 884.5,225.5C 914.189,214.339 944.189,203.673 974.5,193.5C 979.517,192.607 984.183,190.94 988.5,188.5C 993.536,185.929 998.87,183.929 1004.5,182.5C 1009.67,182.001 1014.34,180.334 1018.5,177.5C 1019.17,177.5 1019.83,177.5 1020.5,177.5C 1025.14,176.401 1029.48,174.734 1033.5,172.5C 1051.4,165.921 1069.4,159.421 1087.5,153C 1114.4,137.754 1125.23,114.587 1120,83.5C 1121.15,77.3715 1123.82,72.0382 1128,67.5C 1128.49,66.2068 1128.66,64.8734 1128.5,63.5C 1134.13,60.6835 1139.8,57.8502 1145.5,55C 1157.2,52.6973 1167.53,55.3639 1176.5,63C 1177.79,63.49 1179.13,63.6567 1180.5,63.5C 1184.11,69.7368 1186.95,76.4035 1189,83.5C 1193.46,144.266 1167.96,186.932 1112.5,211.5 Z"/></g>
<g><path style="opacity:1" fill="#6fca9c" d="M 746.5,55.5 C 738.931,54.9781 731.597,55.9781 724.5,58.5C 726.385,56.6885 728.719,55.5218 731.5,55C 736.684,54.1837 741.684,54.3503 746.5,55.5 Z"/></g>
<g><path style="opacity:1" fill="#f8a9aa" d="M 1306.5,82.5 C 1300.15,82.6527 1293.82,82.986 1287.5,83.5C 1291.05,82.0156 1294.89,81.3489 1299,81.5C 1301.69,81.5029 1304.19,81.8362 1306.5,82.5 Z"/></g>
<g><path style="opacity:1" fill="#147cc1" d="M 731.5,689.5 C 717.87,706.439 709.37,725.773 706,747.5C 705.201,768.197 705.368,788.864 706.5,809.5C 671.993,737.651 637.326,665.817 602.5,594C 599.253,591.879 595.919,590.046 592.5,588.5C 489.334,587.334 386.001,587.167 282.5,588C 281.263,588.232 280.263,588.732 279.5,589.5C 276.606,590.882 274.106,592.882 272,595.5C 235.59,672.652 198.923,749.652 162,826.5C 158.78,830.19 154.946,833.024 150.5,835C 134.5,835.667 118.5,835.667 102.5,835C 94.2975,832.461 89.1309,826.961 87,818.5C 86.3333,815.167 86.3333,811.833 87,808.5C 201.464,566.258 315.631,323.925 429.5,81.5C 435.842,81.3338 442.175,81.5005 448.5,82C 542.973,284.446 637.307,486.946 731.5,689.5 Z"/></g>
<g><path style="opacity:1" fill="#ed3337" d="M 1306.5,82.5 C 1320.97,86.1371 1330.47,95.1371 1335,109.5C 1335.33,314.167 1335.67,518.833 1336,723.5C 1339.12,738.623 1347.96,748.789 1362.5,754C 1465.83,754.167 1569.17,754.667 1672.5,755.5C 1695.01,762.863 1703.84,778.197 1699,801.5C 1694.46,814.206 1685.63,822.206 1672.5,825.5C 1544.83,826.667 1417.17,826.833 1289.5,826C 1276.31,822.106 1267.64,813.606 1263.5,800.5C 1262.5,570.967 1262.17,341.634 1262.5,112.5C 1264.78,97.5605 1273.11,87.8939 1287.5,83.5C 1293.82,82.986 1300.15,82.6527 1306.5,82.5 Z"/></g>
<g><path style="opacity:1" fill="#ed3e42" d="M 1262.5,112.5 C 1262.17,341.634 1262.5,570.967 1263.5,800.5C 1262.73,799.737 1262.23,798.737 1262,797.5C 1261.17,569 1261.33,340.666 1262.5,112.5 Z"/></g>
<g><path style="opacity:1" fill="#76cc9f" d="M 1033.5,172.5 C 1029.48,174.734 1025.14,176.401 1020.5,177.5C 1024.21,174.491 1028.54,172.824 1033.5,172.5 Z"/></g>
<g><path style="opacity:1" fill="#78cda1" d="M 1018.5,177.5 C 1014.34,180.334 1009.67,182.001 1004.5,182.5C 1008.9,180.313 1013.56,178.646 1018.5,177.5 Z"/></g>
<g><path style="opacity:1" fill="#74cb9d" d="M 988.5,188.5 C 984.183,190.94 979.517,192.607 974.5,193.5C 978.695,190.746 983.362,189.079 988.5,188.5 Z"/></g>
<g><path style="opacity:1" fill="#91d5b5" d="M 1112.5,211.5 C 1110.21,213.267 1107.54,214.267 1104.5,214.5C 1106.79,212.733 1109.46,211.733 1112.5,211.5 Z"/></g>
<g><path style="opacity:1" fill="#99d9b9" d="M 1102.5,215.5 C 1099.78,217.072 1096.78,218.072 1093.5,218.5C 1096.08,216.528 1099.08,215.528 1102.5,215.5 Z"/></g>
<g><path style="opacity:1" fill="#ade1c7" d="M 1080.5,223.5 C 1076.5,225.61 1072.16,226.943 1067.5,227.5C 1071.5,225.39 1075.84,224.057 1080.5,223.5 Z"/></g>
<g><path style="opacity:1" fill="#8ad4ad" d="M 884.5,225.5 C 882.485,226.924 880.152,227.59 877.5,227.5C 879.515,226.076 881.848,225.41 884.5,225.5 Z"/></g>
<g><path style="opacity:1" fill="#68c693" d="M 788.5,259.5 C 785.66,261.915 782.327,263.248 778.5,263.5C 781.37,261.206 784.703,259.872 788.5,259.5 Z"/></g>
<g><path style="opacity:1" fill="#9fc9e4" d="M 444.5,271.5 C 439.797,271.437 435.13,271.771 430.5,272.5C 432.807,270.953 435.473,270.287 438.5,270.5C 440.696,270.505 442.696,270.838 444.5,271.5 Z"/></g>
<g><path style="opacity:1" fill="#fefefe" d="M 444.5,271.5 C 448.802,272.997 452.635,275.331 456,278.5C 488.606,346.712 520.94,415.046 553,483.5C 557.976,498.38 553.143,508.546 538.5,514C 471.167,514.667 403.833,514.667 336.5,514C 325.525,508.551 321.025,499.718 323,487.5C 355.727,417.712 388.727,348.046 422,278.5C 424.279,275.619 427.112,273.619 430.5,272.5C 435.13,271.771 439.797,271.437 444.5,271.5 Z"/></g>
<g><path style="opacity:1" fill="#a2dcbf" d="M 835.5,310.5 C 831.767,312.411 827.767,313.744 823.5,314.5C 827.085,312.194 831.085,310.861 835.5,310.5 Z"/></g>
<g><path style="opacity:1" fill="#96d9b8" d="M 1160.5,302.5 C 1160.5,333.5 1160.5,364.5 1160.5,395.5C 1031.83,395.5 903.167,395.5 774.5,395.5C 774.172,384.321 774.505,373.321 775.5,362.5C 775.5,373.167 775.5,383.833 775.5,394.5C 903.5,394.5 1031.5,394.5 1159.5,394.5C 1159.17,363.662 1159.5,332.995 1160.5,302.5 Z"/></g>
<g><path style="opacity:1" fill="#99daba" d="M 1159.5,533.5 C 1159.5,513.5 1159.5,493.5 1159.5,473.5C 1031.5,473.5 903.5,473.5 775.5,473.5C 775.831,504.005 775.498,534.338 774.5,564.5C 774.5,533.833 774.5,503.167 774.5,472.5C 903.167,472.5 1031.83,472.5 1160.5,472.5C 1160.83,493.007 1160.5,513.34 1159.5,533.5 Z"/></g>
<g><path style="opacity:1" fill="#68c694" d="M 1109.5,583.5 C 1102.22,586.293 1094.55,587.959 1086.5,588.5C 1093.86,585.96 1101.52,584.294 1109.5,583.5 Z"/></g>
<g><path style="opacity:1" fill="#c2deef" d="M 592.5,588.5 C 488.145,588.175 383.812,588.509 279.5,589.5C 280.263,588.732 281.263,588.232 282.5,588C 386.001,587.167 489.334,587.334 592.5,588.5 Z"/></g>
<g><path style="opacity:1" fill="#68c795" d="M 1050.5,595.5 C 1043.2,598.296 1035.53,599.962 1027.5,600.5C 1034.91,598.195 1042.58,596.528 1050.5,595.5 Z"/></g>
<g><path style="opacity:1" fill="#68c694" d="M 996.5,606.5 C 987.546,609.626 978.213,611.626 968.5,612.5C 977.524,609.627 986.857,607.627 996.5,606.5 Z"/></g>
<g><path style="opacity:1" fill="#68c694" d="M 937.5,618.5 C 930.215,621.293 922.549,622.959 914.5,623.5C 921.855,620.96 929.522,619.294 937.5,618.5 Z"/></g>
<g><path style="opacity:1" fill="#8ed6b1" d="M 906.5,624.5 C 904.162,626.04 901.495,626.706 898.5,626.5C 900.905,625.232 903.572,624.565 906.5,624.5 Z"/></g>
<g><path style="opacity:1" fill="#0ea858" d="M 1227.5,621.5 C 1228.5,682.998 1228.83,744.664 1228.5,806.5C 1225.54,822.131 1216.2,831.464 1200.5,834.5C 1194.01,834.848 1187.68,834.182 1181.5,832.5C 1169.7,827.349 1162.7,818.349 1160.5,805.5C 1160.17,758.095 1160.51,710.761 1161.5,663.5C 1172.69,658.573 1183.69,653.073 1194.5,647C 1205.92,638.966 1216.92,630.466 1227.5,621.5 Z"/></g>
<g><path style="opacity:1" fill="#68c694" d="M 878.5,630.5 C 871.215,633.293 863.549,634.959 855.5,635.5C 862.855,632.96 870.522,631.294 878.5,630.5 Z"/></g>
<g><path style="opacity:1" fill="#88d3ac" d="M 848.5,636.5 C 845.829,638.118 842.829,638.785 839.5,638.5C 842.219,637.087 845.219,636.42 848.5,636.5 Z"/></g>
<g><path style="opacity:1" fill="#ade0c6" d="M 1147.5,638.5 C 1143.49,640.658 1139.16,641.991 1134.5,642.5C 1138.5,640.39 1142.84,639.057 1147.5,638.5 Z"/></g>
<g><path style="opacity:1" fill="#4fbb7c" d="M 834.5,639.5 C 832.626,640.642 830.793,641.975 829,643.5C 822.131,642.008 816.131,643.674 811,648.5C 810.333,645.833 809.667,645.833 809,648.5C 807.372,647.903 805.705,648.237 804,649.5C 801.712,647.344 799.212,647.01 796.5,648.5C 796.611,647.883 796.944,647.383 797.5,647C 809.703,643.793 822.036,641.293 834.5,639.5 Z"/></g>
<g><path style="opacity:1" fill="#37b777" d="M 1228.5,806.5 C 1228.83,744.664 1228.5,682.998 1227.5,621.5C 1227.37,620.624 1227.7,619.957 1228.5,619.5C 1229.83,681.999 1229.83,744.332 1228.5,806.5 Z"/></g>
<g><path style="opacity:1" fill="#9ddbbc" d="M 1124.5,644.5 C 1122.56,646.163 1120.23,646.829 1117.5,646.5C 1119.51,645.076 1121.85,644.41 1124.5,644.5 Z"/></g>
<g><path style="opacity:1" fill="#8ed5b2" d="M 1096.5,650.5 C 1093.73,651.657 1090.73,652.324 1087.5,652.5C 1090.17,650.882 1093.17,650.215 1096.5,650.5 Z"/></g>
<g><path style="opacity:1" fill="#9ddbbc" d="M 1070.5,655.5 C 1068.56,657.163 1066.23,657.829 1063.5,657.5C 1065.51,656.076 1067.85,655.41 1070.5,655.5 Z"/></g>
<g><path style="opacity:1" fill="#9ddbbc" d="M 1011.5,667.5 C 1009.56,669.163 1007.23,669.829 1004.5,669.5C 1006.51,668.076 1008.85,667.41 1011.5,667.5 Z"/></g>
<g><path style="opacity:1" fill="#a7dec3" d="M 943.5,681.5 C 939.521,683.449 935.187,684.449 930.5,684.5C 934.542,682.763 938.876,681.763 943.5,681.5 Z"/></g>
<g><path style="opacity:1" fill="#6dc9a1" d="M 1161.5,663.5 C 1160.51,710.761 1160.17,758.095 1160.5,805.5C 1159.83,782.002 1159.5,758.336 1159.5,734.5C 1159.5,710.49 1160.17,686.824 1161.5,663.5 Z"/></g>
<g><path style="opacity:1" fill="#83d1a9" d="M 1181.5,832.5 C 1187.68,834.182 1194.01,834.848 1200.5,834.5C 1196.02,835.648 1191.35,835.815 1186.5,835C 1184.51,834.626 1182.84,833.793 1181.5,832.5 Z"/></g>
<g><path style="opacity:1" fill="#817e7f" d="M 436.5,870.5 C 429.798,870.336 423.131,870.669 416.5,871.5C 416.918,870.778 417.584,870.278 418.5,870C 424.681,869.181 430.681,869.347 436.5,870.5 Z"/></g>
<g><path style="opacity:1" fill="#7e7c7c" d="M 601.5,870.5 C 593.282,869.99 585.282,870.99 577.5,873.5C 579.385,871.689 581.719,870.522 584.5,870C 590.349,869.182 596.015,869.348 601.5,870.5 Z"/></g>
<g><path style="opacity:1" fill="#868484" d="M 1499.5,870.5 C 1491.05,870.098 1482.71,870.765 1474.5,872.5C 1476.28,871.4 1478.28,870.566 1480.5,870C 1487.01,869.18 1493.35,869.347 1499.5,870.5 Z"/></g>
<g><path style="opacity:1" fill="#252121" d="M 436.5,870.5 C 437.167,870.5 437.833,870.5 438.5,870.5C 440.515,871.924 442.848,872.59 445.5,872.5C 474.863,887.401 483.696,910.401 472,941.5C 466.925,950.743 459.758,957.743 450.5,962.5C 448.033,962.755 446.033,963.755 444.5,965.5C 442.585,965.216 440.919,965.549 439.5,966.5C 431.466,966.698 423.466,966.365 415.5,965.5C 410.052,964.444 405.052,962.278 400.5,959C 377.179,937.166 374.346,913 392,886.5C 398.731,879.056 406.898,874.056 416.5,871.5C 423.131,870.669 429.798,870.336 436.5,870.5 Z"/></g>
<g><path style="opacity:1" fill="#959393" d="M 438.5,870.5 C 441.152,870.41 443.485,871.076 445.5,872.5C 442.848,872.59 440.515,871.924 438.5,870.5 Z"/></g>
<g><path style="opacity:1" fill="#242020" d="M 601.5,870.5 C 626.949,875.946 640.616,891.613 642.5,917.5C 641.688,944.151 628.355,960.485 602.5,966.5C 594.064,966.847 585.731,966.181 577.5,964.5C 552.521,952.207 542.688,932.207 548,904.5C 552.996,889.342 562.829,879.009 577.5,873.5C 585.282,870.99 593.282,869.99 601.5,870.5 Z"/></g>
<g><path style="opacity:1" fill="#252121" d="M 716.5,870.5 C 718.515,871.924 720.848,872.59 723.5,872.5C 731.121,875.405 737.954,879.738 744,885.5C 744.667,886.5 744.667,887.5 744,888.5C 740.621,892.216 736.954,895.549 733,898.5C 726.495,892.831 718.995,889.165 710.5,887.5C 708.527,886.837 706.361,886.504 704,886.5C 700.523,886.328 697.356,886.994 694.5,888.5C 678.017,895.792 671.183,908.458 674,926.5C 682.559,947.529 697.726,954.695 719.5,948C 724.689,945.309 728.689,941.476 731.5,936.5C 732.404,935.791 732.737,934.791 732.5,933.5C 723.5,933.5 714.5,933.5 705.5,933.5C 705.5,928.5 705.5,923.5 705.5,918.5C 720.833,918.5 736.167,918.5 751.5,918.5C 751.5,921.167 751.5,923.833 751.5,926.5C 750.112,938.442 745.112,948.609 736.5,957C 733.444,958.856 730.444,960.689 727.5,962.5C 725.033,962.755 723.033,963.755 721.5,965.5C 720.833,965.5 720.167,965.5 719.5,965.5C 711.534,966.365 703.534,966.698 695.5,966.5C 672.093,961.25 658.926,946.583 656,922.5C 654.767,901.798 662.934,885.965 680.5,875C 682.518,874.495 684.518,873.995 686.5,873.5C 689.659,872.669 692.659,871.669 695.5,870.5C 702.5,869.167 709.5,869.167 716.5,870.5 Z"/></g>
<g><path style="opacity:1" fill="#252121" d="M 1178.5,962.5 C 1175.6,963.129 1172.94,964.129 1170.5,965.5C 1160.08,967.062 1149.75,966.729 1139.5,964.5C 1116.06,953.292 1105.89,934.625 1109,908.5C 1118.53,878.333 1138.7,866 1169.5,871.5C 1199.47,883.44 1210.3,905.107 1202,936.5C 1197.12,947.986 1189.29,956.653 1178.5,962.5 Z"/></g>
<g><path style="opacity:1" fill="#252121" d="M 1499.5,870.5 C 1527.35,878.173 1540.52,896.507 1539,925.5C 1536.09,942.218 1527.26,954.551 1512.5,962.5C 1508.61,963.462 1504.94,964.796 1501.5,966.5C 1473.92,970.405 1455.08,959.405 1445,933.5C 1438.26,904.989 1448.09,884.655 1474.5,872.5C 1482.71,870.765 1491.05,870.098 1499.5,870.5 Z"/></g>
<g><path style="opacity:1" fill="#908f8f" d="M 193.5,872.5 C 187.077,872.209 180.744,872.542 174.5,873.5C 177.258,872.182 180.424,871.515 184,871.5C 187.352,871.502 190.518,871.835 193.5,872.5 Z"/></g>
<g><path style="opacity:1" fill="#777575" d="M 695.5,870.5 C 692.659,871.669 689.659,872.669 686.5,873.5C 688.919,871.138 691.919,870.138 695.5,870.5 Z"/></g>
<g><path style="opacity:1" fill="#999898" d="M 716.5,870.5 C 719.152,870.41 721.485,871.076 723.5,872.5C 720.848,872.59 718.515,871.924 716.5,870.5 Z"/></g>
<g><path style="opacity:1" fill="#939292" d="M 815.5,872.5 C 821.678,871.183 828.012,871.183 834.5,872.5C 834.376,873.107 834.043,873.44 833.5,873.5C 827.69,872.51 821.69,872.177 815.5,872.5 Z"/></g>
<g><path style="opacity:1" fill="#9a9999" d="M 1037.5,872.5 C 1046.99,871.342 1056.66,871.175 1066.5,872C 1068.06,872.21 1069.39,872.71 1070.5,873.5C 1059.86,872.625 1049.19,872.291 1038.5,872.5C 1038.17,872.5 1037.83,872.5 1037.5,872.5 Z"/></g>
<g><path style="opacity:1" fill="#908f8f" d="M 1643.5,872.5 C 1637.31,872.177 1631.31,872.51 1625.5,873.5C 1624.96,873.44 1624.62,873.107 1624.5,872.5C 1630.99,871.183 1637.32,871.183 1643.5,872.5 Z"/></g>
<g><path style="opacity:1" fill="#231f1f" d="M 74.5,872.5 C 85.1719,872.333 95.8385,872.5 106.5,873C 123.683,876.519 131.183,887.019 129,904.5C 126.413,914.583 120.247,921.25 110.5,924.5C 104.185,925.11 97.8513,925.443 91.5,925.5C 91.5,938.5 91.5,951.5 91.5,964.5C 85.8333,964.5 80.1667,964.5 74.5,964.5C 74.5,933.833 74.5,903.167 74.5,872.5 Z"/></g>
<g><path style="opacity:1" fill="#242020" d="M 193.5,872.5 C 204.962,902.883 216.629,933.216 228.5,963.5C 222.528,964.664 216.528,964.83 210.5,964C 208.073,958.223 205.74,952.39 203.5,946.5C 190.846,945.334 178.18,945.167 165.5,946C 162.675,951.641 160.342,957.474 158.5,963.5C 152.256,964.458 145.923,964.791 139.5,964.5C 150.97,934.088 162.637,903.755 174.5,873.5C 180.744,872.542 187.077,872.209 193.5,872.5 Z"/></g>
<g><path style="opacity:1" fill="#221f1f" d="M 284.5,889.5 C 278.833,889.5 273.167,889.5 267.5,889.5C 267.5,914.5 267.5,939.5 267.5,964.5C 261.833,964.5 256.167,964.5 250.5,964.5C 250.831,939.328 250.498,914.328 249.5,889.5C 244.167,889.5 238.833,889.5 233.5,889.5C 233.5,883.833 233.5,878.167 233.5,872.5C 250.5,872.5 267.5,872.5 284.5,872.5C 284.5,878.167 284.5,883.833 284.5,889.5 Z"/></g>
<g><path style="opacity:1" fill="#838181" d="M 314.5,872.5 C 308.833,872.5 303.167,872.5 297.5,872.5C 297.5,903.167 297.5,933.833 297.5,964.5C 303.167,964.5 308.833,964.5 314.5,964.5C 314.5,950.833 314.5,937.167 314.5,923.5C 325.014,923.172 335.347,923.506 345.5,924.5C 335.5,924.5 325.5,924.5 315.5,924.5C 315.5,938.167 315.5,951.833 315.5,965.5C 309.167,965.5 302.833,965.5 296.5,965.5C 296.5,934.167 296.5,902.833 296.5,871.5C 302.69,871.177 308.69,871.51 314.5,872.5 Z"/></g>
<g><path style="opacity:1" fill="#221e1e" d="M 314.5,872.5 C 314.5,884.167 314.5,895.833 314.5,907.5C 325.167,907.5 335.833,907.5 346.5,907.5C 346.5,895.833 346.5,884.167 346.5,872.5C 352.167,872.5 357.833,872.5 363.5,872.5C 363.5,903.167 363.5,933.833 363.5,964.5C 357.833,964.5 352.167,964.5 346.5,964.5C 346.829,950.99 346.496,937.656 345.5,924.5C 335.347,923.506 325.014,923.172 314.5,923.5C 314.5,937.167 314.5,950.833 314.5,964.5C 308.833,964.5 303.167,964.5 297.5,964.5C 297.5,933.833 297.5,903.167 297.5,872.5C 303.167,872.5 308.833,872.5 314.5,872.5 Z"/></g>
<g><path style="opacity:1" fill="#7f7d7d" d="M 511.5,872.5 C 505.833,872.5 500.167,872.5 494.5,872.5C 494.5,903.167 494.5,933.833 494.5,964.5C 508.833,964.5 523.167,964.5 537.5,964.5C 523.01,965.496 508.343,965.829 493.5,965.5C 493.5,934.167 493.5,902.833 493.5,871.5C 499.69,871.177 505.69,871.51 511.5,872.5 Z"/></g>
<g><path style="opacity:1" fill="#221e1e" d="M 511.5,872.5 C 511.5,897.833 511.5,923.167 511.5,948.5C 520.167,948.5 528.833,948.5 537.5,948.5C 537.5,953.833 537.5,959.167 537.5,964.5C 523.167,964.5 508.833,964.5 494.5,964.5C 494.5,933.833 494.5,903.167 494.5,872.5C 500.167,872.5 505.833,872.5 511.5,872.5 Z"/></g>
<g><path style="opacity:1" fill="#242020" d="M 815.5,872.5 C 821.69,872.177 827.69,872.51 833.5,873.5C 824.565,890.371 815.898,907.371 807.5,924.5C 806.504,937.656 806.171,950.99 806.5,964.5C 800.833,964.5 795.167,964.5 789.5,964.5C 789.667,950.829 789.5,937.163 789,923.5C 780.167,906.667 771.333,889.833 762.5,873C 768.859,872.169 775.193,872.336 781.5,873.5C 787,883.833 792.5,894.167 798,904.5C 804.116,893.932 809.949,883.265 815.5,872.5 Z"/></g>
<g><path style="opacity:1" fill="#949494" d="M 885.5,872.5 C 885.5,903.167 885.5,933.833 885.5,964.5C 899.833,964.5 914.167,964.5 928.5,964.5C 914.01,965.496 899.343,965.829 884.5,965.5C 884.169,934.329 884.502,903.329 885.5,872.5 Z"/></g>
<g><path style="opacity:1" fill="#221e1e" d="M 885.5,872.5 C 891.167,872.5 896.833,872.5 902.5,872.5C 902.5,897.833 902.5,923.167 902.5,948.5C 911.167,948.5 919.833,948.5 928.5,948.5C 928.5,953.833 928.5,959.167 928.5,964.5C 914.167,964.5 899.833,964.5 885.5,964.5C 885.5,933.833 885.5,903.167 885.5,872.5 Z"/></g>
<g><path style="opacity:1" fill="#bdbbbb" d="M 885.5,872.5 C 891.31,871.51 897.31,871.177 903.5,871.5C 903.5,896.833 903.5,922.167 903.5,947.5C 912.017,947.174 920.35,947.507 928.5,948.5C 919.833,948.5 911.167,948.5 902.5,948.5C 902.5,923.167 902.5,897.833 902.5,872.5C 896.833,872.5 891.167,872.5 885.5,872.5 Z"/></g>
<g><path style="opacity:1" fill="#242020" d="M 953.5,964.5 C 947.31,964.823 941.31,964.49 935.5,963.5C 947.118,933.266 958.451,902.932 969.5,872.5C 976.09,872.189 982.59,872.522 989,873.5C 1000.8,903.752 1012.3,934.085 1023.5,964.5C 1017.46,964.829 1011.46,964.496 1005.5,963.5C 1003.26,957.61 1000.93,951.777 998.5,946C 985.833,945.333 973.167,945.333 960.5,946C 957.867,952.069 955.533,958.235 953.5,964.5 Z"/></g>
<g><path style="opacity:1" fill="#747272" d="M 1037.5,872.5 C 1037.83,872.5 1038.17,872.5 1038.5,872.5C 1038.5,903.167 1038.5,933.833 1038.5,964.5C 1049.17,964.5 1059.83,964.5 1070.5,964.5C 1059.68,965.495 1048.68,965.828 1037.5,965.5C 1037.5,934.5 1037.5,903.5 1037.5,872.5 Z"/></g>
<g><path style="opacity:1" fill="#232020" d="M 1038.5,872.5 C 1049.19,872.291 1059.86,872.625 1070.5,873.5C 1085.34,878.176 1091.17,888.176 1088,903.5C 1086.05,907.282 1083.55,910.615 1080.5,913.5C 1086.94,917.435 1091.77,922.768 1095,929.5C 1098.38,943.713 1093.88,954.38 1081.5,961.5C 1077.75,962.614 1074.08,963.614 1070.5,964.5C 1059.83,964.5 1049.17,964.5 1038.5,964.5C 1038.5,933.833 1038.5,903.167 1038.5,872.5 Z"/></g>
<g><path style="opacity:1" fill="#8b8b8a" d="M 1250.5,872.5 C 1241.5,872.5 1232.5,872.5 1223.5,872.5C 1223.5,903.167 1223.5,933.833 1223.5,964.5C 1229.17,964.5 1234.83,964.5 1240.5,964.5C 1234.69,965.49 1228.69,965.823 1222.5,965.5C 1222.5,934.167 1222.5,902.833 1222.5,871.5C 1232.01,871.173 1241.35,871.506 1250.5,872.5 Z"/></g>
<g><path style="opacity:1" fill="#242020" d="M 1250.5,872.5 C 1273.7,875.226 1282.2,887.892 1276,910.5C 1273.24,916.426 1268.74,920.426 1262.5,922.5C 1262.17,923.167 1261.83,923.833 1261.5,924.5C 1267.92,937.673 1274.59,950.673 1281.5,963.5C 1275.36,964.49 1269.02,964.823 1262.5,964.5C 1256.27,951.041 1249.27,938.041 1241.5,925.5C 1240.5,938.483 1240.17,951.483 1240.5,964.5C 1234.83,964.5 1229.17,964.5 1223.5,964.5C 1223.5,933.833 1223.5,903.167 1223.5,872.5C 1232.5,872.5 1241.5,872.5 1250.5,872.5 Z"/></g>
<g><path style="opacity:1" fill="#242020" d="M 1308.5,964.5 C 1302.31,964.823 1296.31,964.49 1290.5,963.5C 1301.83,933.167 1313.17,902.833 1324.5,872.5C 1331.09,872.189 1337.59,872.522 1344,873.5C 1355.6,903.461 1367.1,933.461 1378.5,963.5C 1372.53,964.664 1366.53,964.83 1360.5,964C 1358.36,957.921 1356.03,951.921 1353.5,946C 1340.83,945.333 1328.17,945.333 1315.5,946C 1312.74,952.018 1310.41,958.185 1308.5,964.5 Z"/></g>
<g><path style="opacity:1" fill="#221e1e" d="M 1434.5,872.5 C 1434.5,877.833 1434.5,883.167 1434.5,888.5C 1428.97,888.179 1423.64,888.512 1418.5,889.5C 1417.5,914.328 1417.17,939.328 1417.5,964.5C 1411.83,964.5 1406.17,964.5 1400.5,964.5C 1400.5,939.5 1400.5,914.5 1400.5,889.5C 1394.83,889.5 1389.17,889.5 1383.5,889.5C 1383.5,883.833 1383.5,878.167 1383.5,872.5C 1400.5,872.5 1417.5,872.5 1434.5,872.5 Z"/></g>
<g><path style="opacity:1" fill="#242020" d="M 1557.5,872.5 C 1568.17,872.5 1578.83,872.5 1589.5,872.5C 1591.51,873.924 1593.85,874.59 1596.5,874.5C 1610.29,881.326 1615.12,892.326 1611,907.5C 1610.28,909.949 1609.28,912.283 1608,914.5C 1604.03,918.216 1599.86,921.549 1595.5,924.5C 1602.43,937.36 1609.1,950.36 1615.5,963.5C 1609.69,964.49 1603.69,964.823 1597.5,964.5C 1590.5,951.833 1583.5,939.167 1576.5,926.5C 1576.44,925.957 1576.11,925.624 1575.5,925.5C 1574.5,938.483 1574.17,951.483 1574.5,964.5C 1568.83,964.5 1563.17,964.5 1557.5,964.5C 1557.5,933.833 1557.5,903.167 1557.5,872.5 Z"/></g>
<g><path style="opacity:1" fill="#242020" d="M 1643.5,872.5 C 1649.05,883.265 1654.88,893.932 1661,904.5C 1666.5,894.167 1672,883.833 1677.5,873.5C 1683.81,872.336 1690.14,872.169 1696.5,873C 1687.54,889.754 1678.71,906.588 1670,923.5C 1669.5,937.163 1669.33,950.829 1669.5,964.5C 1663.83,964.5 1658.17,964.5 1652.5,964.5C 1652.83,950.99 1652.5,937.656 1651.5,924.5C 1643.1,907.371 1634.44,890.371 1625.5,873.5C 1631.31,872.51 1637.31,872.177 1643.5,872.5 Z"/></g>
<g><path style="opacity:1" fill="#949393" d="M 1589.5,872.5 C 1592.23,872.171 1594.56,872.837 1596.5,874.5C 1593.85,874.59 1591.51,873.924 1589.5,872.5 Z"/></g>
<g><path style="opacity:1" fill="#828181" d="M 437.5,888.5 C 431.172,887.232 424.839,887.232 418.5,888.5C 421.526,886.981 424.859,886.315 428.5,886.5C 430.833,886.667 433.167,886.833 435.5,887C 436.416,887.278 437.082,887.778 437.5,888.5 Z"/></g>
<g><path style="opacity:1" fill="#8a8989" d="M 602.5,888.5 C 594.939,886.79 587.605,887.456 580.5,890.5C 582.385,888.689 584.719,887.522 587.5,887C 591.833,886.333 596.167,886.333 600.5,887C 601.416,887.278 602.082,887.778 602.5,888.5 Z"/></g>
<g><path style="opacity:1" fill="#7e7c7c" d="M 710.5,887.5 C 705.13,887.392 699.797,887.725 694.5,888.5C 697.356,886.994 700.523,886.328 704,886.5C 706.361,886.504 708.527,886.837 710.5,887.5 Z"/></g>
<g><path style="opacity:1" fill="#7b797a" d="M 1497.5,887.5 C 1491.8,887.375 1486.13,887.708 1480.5,888.5C 1483.53,886.981 1486.86,886.315 1490.5,886.5C 1493.03,886.503 1495.36,886.837 1497.5,887.5 Z"/></g>
<g><path style="opacity:1" fill="#fcfcfc" d="M 437.5,888.5 C 451.48,893.263 458.813,903.096 459.5,918C 459.06,934.925 450.726,945.425 434.5,949.5C 428.044,949.768 421.711,949.101 415.5,947.5C 401.447,939.231 395.947,926.898 399,910.5C 402.053,900.029 408.553,892.696 418.5,888.5C 424.839,887.232 431.172,887.232 437.5,888.5 Z"/></g>
<g><path style="opacity:1" fill="#fcfcfc" d="M 602.5,888.5 C 613.105,891.399 620.272,898.066 624,908.5C 628.514,929.493 620.68,943.16 600.5,949.5C 594.013,949.848 587.68,949.182 581.5,947.5C 569.936,941.383 564.27,931.716 564.5,918.5C 564.281,907.769 568.281,898.936 576.5,892C 577.745,891.209 579.078,890.709 580.5,890.5C 587.605,887.456 594.939,886.79 602.5,888.5 Z"/></g>
<g><path style="opacity:1" fill="#fcfcfc" d="M 1150.5,887.5 C 1154.83,887.5 1159.17,887.5 1163.5,887.5C 1165.51,889.065 1167.84,890.065 1170.5,890.5C 1186.11,900.158 1190.94,913.825 1185,931.5C 1180.59,941.411 1173.09,947.411 1162.5,949.5C 1156.04,949.768 1149.71,949.101 1143.5,947.5C 1129.45,939.231 1123.95,926.898 1127,910.5C 1129.45,901.572 1134.61,894.905 1142.5,890.5C 1145.4,889.871 1148.06,888.871 1150.5,887.5 Z"/></g>
<g><path style="opacity:1" fill="#fcfcfc" d="M 1497.5,887.5 C 1516.9,894.289 1524.4,907.956 1520,928.5C 1516.07,939.93 1508.24,946.93 1496.5,949.5C 1491.13,949.608 1485.8,949.275 1480.5,948.5C 1464.32,941.149 1457.82,928.483 1461,910.5C 1464.2,900.143 1470.7,892.81 1480.5,888.5C 1486.13,887.708 1491.8,887.375 1497.5,887.5 Z"/></g>
<g><path style="opacity:1" fill="#716e6e" d="M 1434.5,872.5 C 1435.49,877.975 1435.82,883.642 1435.5,889.5C 1429.83,889.5 1424.17,889.5 1418.5,889.5C 1423.64,888.512 1428.97,888.179 1434.5,888.5C 1434.5,883.167 1434.5,877.833 1434.5,872.5 Z"/></g>
<g><path style="opacity:1" fill="#f4f4f4" d="M 1055.5,888.5 C 1061.7,887.285 1066.87,888.952 1071,893.5C 1073.83,899.516 1072.33,904.183 1066.5,907.5C 1062.89,908.489 1059.23,908.823 1055.5,908.5C 1055.5,901.833 1055.5,895.167 1055.5,888.5 Z"/></g>
<g><path style="opacity:1" fill="#949393" d="M 1150.5,887.5 C 1148.06,888.871 1145.4,889.871 1142.5,890.5C 1144.62,888.345 1147.28,887.345 1150.5,887.5 Z"/></g>
<g><path style="opacity:1" fill="#939293" d="M 1163.5,887.5 C 1166.35,887.552 1168.68,888.552 1170.5,890.5C 1167.84,890.065 1165.51,889.065 1163.5,887.5 Z"/></g>
<g><path style="opacity:1" fill="#9a999a" d="M 102.5,889.5 C 99.1667,889.5 95.8333,889.5 92.5,889.5C 92.5,895.5 92.5,901.5 92.5,907.5C 96.8333,907.5 101.167,907.5 105.5,907.5C 101.03,908.486 96.3633,908.819 91.5,908.5C 91.5,901.833 91.5,895.167 91.5,888.5C 95.3714,888.185 99.0381,888.518 102.5,889.5 Z"/></g>
<g><path style="opacity:1" fill="#f9f9f9" d="M 102.5,889.5 C 112.251,891.337 114.751,896.671 110,905.5C 108.89,907.037 107.39,907.703 105.5,907.5C 101.167,907.5 96.8333,907.5 92.5,907.5C 92.5,901.5 92.5,895.5 92.5,889.5C 95.8333,889.5 99.1667,889.5 102.5,889.5 Z"/></g>
<g><path style="opacity:1" fill="#898989" d="M 249.5,889.5 C 250.498,914.328 250.831,939.328 250.5,964.5C 256.167,964.5 261.833,964.5 267.5,964.5C 267.5,964.833 267.5,965.167 267.5,965.5C 261.5,965.5 255.5,965.5 249.5,965.5C 249.5,940.167 249.5,914.833 249.5,889.5 Z"/></g>
<g><path style="opacity:1" fill="#aaaaac" d="M 284.5,889.5 C 279.36,890.488 274.026,890.821 268.5,890.5C 268.831,915.672 268.498,940.672 267.5,965.5C 267.5,965.167 267.5,964.833 267.5,964.5C 267.5,939.5 267.5,914.5 267.5,889.5C 273.167,889.5 278.833,889.5 284.5,889.5 Z"/></g>
<g><path style="opacity:1" fill="#c7c6c7" d="M 1257.5,891.5 C 1252.23,890.6 1246.89,890.267 1241.5,890.5C 1241.5,896.167 1241.5,901.833 1241.5,907.5C 1246.17,907.5 1250.83,907.5 1255.5,907.5C 1250.69,908.487 1245.69,908.821 1240.5,908.5C 1240.5,902.167 1240.5,895.833 1240.5,889.5C 1245.84,889.334 1251.18,889.501 1256.5,890C 1257.06,890.383 1257.39,890.883 1257.5,891.5 Z"/></g>
<g><path style="opacity:1" fill="#fafafa" d="M 1257.5,891.5 C 1263.21,897.629 1262.54,902.962 1255.5,907.5C 1250.83,907.5 1246.17,907.5 1241.5,907.5C 1241.5,901.833 1241.5,896.167 1241.5,890.5C 1246.89,890.267 1252.23,890.6 1257.5,891.5 Z"/></g>
<g><path style="opacity:1" fill="#aaaaac" d="M 1383.5,889.5 C 1389.17,889.5 1394.83,889.5 1400.5,889.5C 1400.5,914.5 1400.5,939.5 1400.5,964.5C 1400.5,964.833 1400.5,965.167 1400.5,965.5C 1399.5,940.672 1399.17,915.672 1399.5,890.5C 1393.97,890.821 1388.64,890.488 1383.5,889.5 Z"/></g>
<g><path style="opacity:1" fill="#888989" d="M 1418.5,889.5 C 1418.5,914.833 1418.5,940.167 1418.5,965.5C 1412.5,965.5 1406.5,965.5 1400.5,965.5C 1400.5,965.167 1400.5,964.833 1400.5,964.5C 1406.17,964.5 1411.83,964.5 1417.5,964.5C 1417.17,939.328 1417.5,914.328 1418.5,889.5 Z"/></g>
<g><path style="opacity:1" fill="#afafaf" d="M 1575.5,889.5 C 1575.5,895.5 1575.5,901.5 1575.5,907.5C 1579.5,907.5 1583.5,907.5 1587.5,907.5C 1583.37,908.485 1579.03,908.818 1574.5,908.5C 1574.18,901.978 1574.51,895.645 1575.5,889.5 Z"/></g>
<g><path style="opacity:1" fill="#f8f8f8" d="M 1575.5,889.5 C 1580.54,889.173 1585.54,889.506 1590.5,890.5C 1596.32,894.925 1596.99,900.092 1592.5,906C 1590.98,907.009 1589.31,907.509 1587.5,907.5C 1583.5,907.5 1579.5,907.5 1575.5,907.5C 1575.5,901.5 1575.5,895.5 1575.5,889.5 Z"/></g>
<g><path style="opacity:1" fill="#f6f6f6" d="M 196.5,928.5 C 188.316,928.826 180.316,928.492 172.5,927.5C 176.032,917.406 179.865,907.406 184,897.5C 188.715,907.598 192.881,917.932 196.5,928.5 Z"/></g>
<g><path style="opacity:1" fill="#f4f4f4" d="M 978.5,897.5 C 979.75,897.577 980.583,898.244 981,899.5C 984.806,909.087 988.306,918.754 991.5,928.5C 983.5,928.5 975.5,928.5 967.5,928.5C 970.97,918.091 974.636,907.758 978.5,897.5 Z"/></g>
<g><path style="opacity:1" fill="#f5f5f5" d="M 1346.5,928.5 C 1338.32,928.826 1330.32,928.492 1322.5,927.5C 1325.95,917.266 1329.95,907.266 1334.5,897.5C 1338.9,907.69 1342.9,918.024 1346.5,928.5 Z"/></g>
<g><path style="opacity:1" fill="#999899" d="M 363.5,872.5 C 357.833,872.5 352.167,872.5 346.5,872.5C 346.5,884.167 346.5,895.833 346.5,907.5C 335.833,907.5 325.167,907.5 314.5,907.5C 314.5,895.833 314.5,884.167 314.5,872.5C 315.495,883.654 315.828,894.988 315.5,906.5C 325.5,906.5 335.5,906.5 345.5,906.5C 345.5,894.833 345.5,883.167 345.5,871.5C 351.69,871.177 357.69,871.51 363.5,872.5 Z"/></g>
<g><path style="opacity:1" fill="#7d7d7e" d="M 705.5,918.5 C 720.991,917.504 736.658,917.17 752.5,917.5C 752.81,920.713 752.477,923.713 751.5,926.5C 751.5,923.833 751.5,921.167 751.5,918.5C 736.167,918.5 720.833,918.5 705.5,918.5 Z"/></g>
<g><path style="opacity:1" fill="#989898" d="M 363.5,872.5 C 364.498,903.329 364.831,934.329 364.5,965.5C 358.167,965.5 351.833,965.5 345.5,965.5C 345.5,951.833 345.5,938.167 345.5,924.5C 346.496,937.656 346.829,950.99 346.5,964.5C 352.167,964.5 357.833,964.5 363.5,964.5C 363.5,933.833 363.5,903.167 363.5,872.5 Z"/></g>
<g><path style="opacity:1" fill="#898989" d="M 807.5,924.5 C 807.5,938.167 807.5,951.833 807.5,965.5C 801.31,965.823 795.31,965.49 789.5,964.5C 795.167,964.5 800.833,964.5 806.5,964.5C 806.171,950.99 806.504,937.656 807.5,924.5 Z"/></g>
<g><path style="opacity:1" fill="#fafafa" d="M 1073.5,946.5 C 1067.54,947.307 1061.54,947.64 1055.5,947.5C 1055.5,939.833 1055.5,932.167 1055.5,924.5C 1060.18,924.334 1064.85,924.501 1069.5,925C 1077.22,927.948 1080.06,933.448 1078,941.5C 1076.98,943.687 1075.48,945.354 1073.5,946.5 Z"/></g>
<g><path style="opacity:1" fill="#6c6b6b" d="M 1651.5,924.5 C 1652.5,937.656 1652.83,950.99 1652.5,964.5C 1658.17,964.5 1663.83,964.5 1669.5,964.5C 1663.69,965.49 1657.69,965.823 1651.5,965.5C 1651.5,951.833 1651.5,938.167 1651.5,924.5 Z"/></g>
<g><path style="opacity:1" fill="#a8a8a8" d="M 74.5,872.5 C 74.5,903.167 74.5,933.833 74.5,964.5C 80.1667,964.5 85.8333,964.5 91.5,964.5C 91.5,951.5 91.5,938.5 91.5,925.5C 97.8513,925.443 104.185,925.11 110.5,924.5C 104.75,926.15 98.75,926.816 92.5,926.5C 92.5,939.5 92.5,952.5 92.5,965.5C 86.1667,965.5 79.8333,965.5 73.5,965.5C 73.1685,934.329 73.5018,903.329 74.5,872.5 Z"/></g>
<g><path style="opacity:1" fill="#ababab" d="M 1557.5,872.5 C 1557.5,903.167 1557.5,933.833 1557.5,964.5C 1563.17,964.5 1568.83,964.5 1574.5,964.5C 1574.17,951.483 1574.5,938.483 1575.5,925.5C 1576.11,925.624 1576.44,925.957 1576.5,926.5C 1575.5,939.323 1575.17,952.323 1575.5,965.5C 1569.17,965.5 1562.83,965.5 1556.5,965.5C 1556.17,934.329 1556.5,903.329 1557.5,872.5 Z"/></g>
<g><path style="opacity:1" fill="#615f60" d="M 172.5,927.5 C 180.316,928.492 188.316,928.826 196.5,928.5C 188.324,929.821 179.991,929.821 171.5,928.5C 171.624,927.893 171.957,927.56 172.5,927.5 Z"/></g>
<g><path style="opacity:1" fill="#605e5f" d="M 1322.5,927.5 C 1330.32,928.492 1338.32,928.826 1346.5,928.5C 1338.32,929.821 1329.99,929.821 1321.5,928.5C 1321.62,927.893 1321.96,927.56 1322.5,927.5 Z"/></g>
<g><path style="opacity:1" fill="#545252" d="M 705.5,933.5 C 714.5,933.5 723.5,933.5 732.5,933.5C 732.737,934.791 732.404,935.791 731.5,936.5C 723.048,934.845 714.381,933.845 705.5,933.5 Z"/></g>
<g><path style="opacity:1" fill="#8f8e8e" d="M 1073.5,946.5 C 1070.3,948.03 1066.8,948.696 1063,948.5C 1060.31,948.497 1057.81,948.164 1055.5,947.5C 1061.54,947.64 1067.54,947.307 1073.5,946.5 Z"/></g>
<g><path style="opacity:1" fill="#9b9a9a" d="M 415.5,947.5 C 421.711,949.101 428.044,949.768 434.5,949.5C 430.019,950.648 425.352,950.815 420.5,950C 418.685,949.243 417.019,948.41 415.5,947.5 Z"/></g>
<g><path style="opacity:1" fill="#9c9a9a" d="M 581.5,947.5 C 587.68,949.182 594.013,949.848 600.5,949.5C 596.019,950.648 591.352,950.815 586.5,950C 584.509,949.626 582.842,948.793 581.5,947.5 Z"/></g>
<g><path style="opacity:1" fill="#9d9b9b" d="M 1143.5,947.5 C 1149.71,949.101 1156.04,949.768 1162.5,949.5C 1158.02,950.648 1153.35,950.815 1148.5,950C 1146.69,949.243 1145.02,948.41 1143.5,947.5 Z"/></g>
<g><path style="opacity:1" fill="#9e9c9c" d="M 1480.5,948.5 C 1485.8,949.275 1491.13,949.608 1496.5,949.5C 1494.53,950.163 1492.36,950.496 1490,950.5C 1486.52,950.672 1483.36,950.006 1480.5,948.5 Z"/></g>
<g><path style="opacity:1" fill="#868484" d="M 1081.5,961.5 C 1080.65,962.966 1079.32,963.8 1077.5,964C 1075.19,964.497 1072.86,964.663 1070.5,964.5C 1074.08,963.614 1077.75,962.614 1081.5,961.5 Z"/></g>
<g><path style="opacity:1" fill="#999898" d="M 727.5,962.5 C 725.967,964.245 723.967,965.245 721.5,965.5C 723.033,963.755 725.033,962.755 727.5,962.5 Z"/></g>
<g><path style="opacity:1" fill="#8c8c8c" d="M 158.5,963.5 C 155.742,964.818 152.576,965.485 149,965.5C 145.648,965.498 142.482,965.165 139.5,964.5C 145.923,964.791 152.256,964.458 158.5,963.5 Z"/></g>
<g><path style="opacity:1" fill="#a2a0a0" d="M 450.5,962.5 C 448.967,964.245 446.967,965.245 444.5,965.5C 446.033,963.755 448.033,962.755 450.5,962.5 Z"/></g>
<g><path style="opacity:1" fill="#8b8b8b" d="M 935.5,963.5 C 941.31,964.49 947.31,964.823 953.5,964.5C 947.322,965.817 940.988,965.817 934.5,964.5C 934.624,963.893 934.957,963.56 935.5,963.5 Z"/></g>
<g><path style="opacity:1" fill="#9e9d9d" d="M 1178.5,962.5 C 1176.38,964.655 1173.72,965.655 1170.5,965.5C 1172.94,964.129 1175.6,963.129 1178.5,962.5 Z"/></g>
<g><path style="opacity:1" fill="#8b8b8b" d="M 1281.5,963.5 C 1282.04,963.56 1282.38,963.893 1282.5,964.5C 1275.68,965.818 1269.01,965.818 1262.5,964.5C 1269.02,964.823 1275.36,964.49 1281.5,963.5 Z"/></g>
<g><path style="opacity:1" fill="#8b8b8b" d="M 1290.5,963.5 C 1296.31,964.49 1302.31,964.823 1308.5,964.5C 1302.32,965.817 1295.99,965.817 1289.5,964.5C 1289.62,963.893 1289.96,963.56 1290.5,963.5 Z"/></g>
<g><path style="opacity:1" fill="#9a9999" d="M 1512.5,962.5 C 1509.37,964.99 1505.71,966.323 1501.5,966.5C 1504.94,964.796 1508.61,963.462 1512.5,962.5 Z"/></g>
<g><path style="opacity:1" fill="#888989" d="M 1615.5,963.5 C 1616.04,963.56 1616.38,963.893 1616.5,964.5C 1610.01,965.817 1603.68,965.817 1597.5,964.5C 1603.69,964.823 1609.69,964.49 1615.5,963.5 Z"/></g>
<g><path style="opacity:1" fill="#807f7f" d="M 415.5,965.5 C 423.466,966.365 431.466,966.698 439.5,966.5C 432.345,967.655 425.012,967.822 417.5,967C 416.584,966.722 415.918,966.222 415.5,965.5 Z"/></g>
<g><path style="opacity:1" fill="#7d7c7c" d="M 577.5,964.5 C 585.731,966.181 594.064,966.847 602.5,966.5C 596.347,967.653 590.014,967.82 583.5,967C 581.277,966.434 579.277,965.6 577.5,964.5 Z"/></g>
<g><path style="opacity:1" fill="#7e7c7c" d="M 719.5,965.5 C 719.082,966.222 718.416,966.722 717.5,967C 709.988,967.822 702.655,967.655 695.5,966.5C 703.534,966.698 711.534,966.365 719.5,965.5 Z"/></g>
<g><path style="opacity:1" fill="#817f7f" d="M 1139.5,964.5 C 1149.75,966.729 1160.08,967.062 1170.5,965.5C 1170.08,966.222 1169.42,966.722 1168.5,967C 1160.83,967.667 1153.17,967.667 1145.5,967C 1143.28,966.434 1141.28,965.6 1139.5,964.5 Z"/></g>
</svg>
